<svg width="48" height="48" viewBox="0 0 100 100" xmlns="http://www.w3.org/2000/svg">
    <g transform="translate(60, 50) scale(0.6) rotate(15)">
        <rect x="-35" y="-30" width="10" height="60" rx="5" ry="5" fill="#F48FB1" stroke="#000" stroke-width="1"/>

        <line x1="-30" y1="-25" x2="20" y2="20" stroke="#BDBDBD" stroke-width="2" stroke-linecap="round"/>

        <circle cx="-25" cy="-20" r="4" fill="#E0E0E0" stroke="#000" stroke-width="0.5"/>
        <circle cx="-20" cy="-10" r="4" fill="#FFD700" stroke="#000" stroke-width="0.5"/>
        <circle cx="-5" cy="5" r="4" fill="#FFD700" stroke="#000" stroke-width="0.5"/>
        <circle cx="10" cy="15" r="4" fill="#E0E0E0" stroke="#000" stroke-width="0.5"/>

        <path d="M25,25 C20,35,15,30,10,35 Q5,40,0,35 L5,25 Z" fill="#FFEB3B" stroke="#000" stroke-width="0.5"/>
        <path d="M20,28 C15,38,10,33,5,38 Q0,43,-5,38 L0,28 Z" fill="#EF5350" stroke="#000" stroke-width="0.5"/>
        <path d="M30,22 C25,32,20,27,15,32 Q10,37,5,32 L10,22 Z" fill="#FFFFFF" stroke="#000" stroke-width="0.5"/>
    </g>
</svg>