<svg width="48" height="48" viewBox="0 0 100 100" xmlns="http://www.w3.org/2000/svg">
    <g transform="translate(50, 50) scale(0.6) rotate(-10)">

        <path d="M-35,0 Q-30,-20,0,-20 Q30,-20,35,0 Q30,20,0,20 Q-30,20,-35,0 Z" fill="#FFE0B2" stroke="#000" stroke-width="1.5"/>

        <circle cx="-20" cy="0" r="5" fill="#000"/>
        <circle cx="-20" cy="0" r="2" fill="#FFF"/>

        <path d="M25,0 L40,-10 L40,10 Z" fill="#FFE0B2" stroke="#000" stroke-width="1.5"/>

        <path d="M-20,-10 L-15,-5 L-10,-10 L-5,-5 L0,-10 L5,-5 L10,-10 L15,-5 L20,-10" fill="none" stroke="#8D6E63" stroke-width="1"/>
        <path d="M-20,10 L-15,5 L-10,10 L-5,5 L0,10 L5,5 L10,10 L15,5 L20,10" fill="none" stroke="#8D6E63" stroke-width="1"/>

    </g>
</svg>