<svg width="48" height="48" viewBox="0 0 100 100" xmlns="http://www.w3.org/2000/svg">
    <g transform="translate(50, 60) scale(0.6)">
        <rect x="-30" y="-30" width="60" height="40" rx="5" ry="5" fill="#BDBDBD" stroke="#000" stroke-width="1"/>

        <path d="M-30,-30 H30 A5 5 0 0 1 35,-25 V-20 A5 5 0 0 1 30,-15 H-30 A5 5 0 0 1 -35,-20 V-25 A5 5 0 0 1 -30,-30 Z" fill="#E0E0E0" stroke="#000" stroke-width="1"/>
        <path d="M-30,-30 Q0,-40,30,-30" fill="none" stroke="#616161" stroke-width="1"/>

        <circle cx="15" cy="-25" r="5" fill="#757575" stroke="#000" stroke-width="0.5"/>
        <line x1="15" y1="-25" x2="20" y2="-15" stroke="#757575" stroke-width="1"/>

        <g transform="translate(-2, -2)">
            <path d="M-15,0 C-10,-10,10,-10,15,0 C10,10,-10,10,-15,0 Z" fill="#FFC107" stroke="#000" stroke-width="1"/>
            <path d="M15,0 L20,-5 L20,5 Z" fill="#FFC107" stroke="#000" stroke-width="1"/>
            <circle cx="-10" cy="0" r="2" fill="#000"/>
        </g>
    </g>
</svg>